<svg width="64" height="64" viewBox="0 0 64 64" fill="none" xmlns="http://www.w3.org/2000/svg">
<path fill-rule="evenodd" clip-rule="evenodd" d="M58.6773 0.341876C55.1923 0.892351 47.9609 1.38488 41.3974 2.08022C29.4612 3.32603 30.2163 3.18114 30.2163 4.65873C30.2163 6.86063 33.2076 10.6271 37.7091 14.1037L38.6675 14.8281C30.4486 23.3169 28.7061 25.5188 18.0187 38.1508C5.24028 53.2744 5.00791 56.1716 1.00014 60.8941C-1.81693 64.1969 1.87139 65.2689 5.21121 62.1109C9.68365 57.881 19.558 49.9715 27.5444 44.206C29.6645 42.6995 50.9231 26.7647 50.9231 26.7647C57.08 32.9647 57.6608 33.747 59.1129 33.3704C59.6938 33.2255 59.7809 33.0227 59.8099 31.4292C59.9551 26.4749 63.4982 11.0616 63.9629 4.51387C64.2824 -0.643213 62.5399 -0.266543 58.6773 0.341876ZM60.5941 5.03531C59.2581 9.35219 57.0509 21.028 56.7024 25.6058L56.4992 28.3002C52.6366 23.0852 51.7653 21.2888 46.683 25.1422C40.439 29.8647 21.3004 44.0032 19.4708 45.3649C13.8947 49.5369 13.8947 49.5369 17.0022 45.9154C23.5947 38.2957 40.2067 18.3916 41.9201 16.914C42.0073 16.4504 45.2309 16.5374 38.6675 10.7719C36.8378 9.17844 35.4729 7.84563 35.6181 7.78768C36.1699 7.61385 53.3917 5.90457 58.6773 4.83259C60.6521 4.45595 60.7683 4.45586 60.5941 5.03531Z" fill="#4D575C"/>
<path d="M60.5941 5.03531C59.2581 9.35219 57.0509 21.028 56.7024 25.6058L56.4992 28.3002C52.6366 23.0852 51.7653 21.2888 46.683 25.1422C40.439 29.8647 21.3004 44.0032 19.4708 45.3649C13.8947 49.5369 13.8947 49.5369 17.0022 45.9154C23.5947 38.2957 40.2067 18.3916 41.9201 16.914C42.0073 16.4504 45.2309 16.5374 38.6675 10.7719C36.8378 9.17844 35.4729 7.84563 35.6181 7.78768C36.1699 7.61385 53.3917 5.90457 58.6773 4.83259C60.6521 4.45595 60.7683 4.45586 60.5941 5.03531Z" fill="#4D575C"/>
</svg>
