<svg width="40" height="40" viewBox="0 0 40 40" fill="none" xmlns="http://www.w3.org/2000/svg">
<path fill-rule="evenodd" clip-rule="evenodd" d="M36.6733 0.213673C34.4952 0.557719 29.9755 0.86555 25.8734 1.30014C18.4133 2.07877 18.8852 1.98821 18.8852 2.9117C18.8852 4.28789 20.7547 6.64191 23.5682 8.81484L24.1672 9.26753C19.0304 14.5731 17.9413 15.9493 11.2617 23.8442C3.27517 33.2965 3.12995 35.1072 0.625087 38.0588C-1.13558 40.1231 1.16962 40.7931 3.257 38.8193C6.05228 36.1756 12.2237 31.2322 17.2153 27.6288C18.5403 26.6872 31.8269 16.7279 31.8269 16.7279C35.675 20.603 36.038 21.0919 36.9456 20.8565C37.3086 20.7659 37.363 20.6392 37.3812 19.6433C37.472 16.5468 39.6864 6.91351 39.9768 2.82117C40.1765 -0.402008 39.0874 -0.166589 36.6733 0.213673ZM37.8713 3.14707C37.0363 5.84512 35.6568 13.1425 35.439 16.0036L35.312 17.6876C32.8979 14.4282 32.3533 13.3055 29.1769 15.7139C25.2744 18.6654 13.3128 27.502 12.1692 28.3531C8.68421 30.9606 8.68422 30.9606 10.6264 28.6971C14.7467 23.9348 25.1292 11.4947 26.2001 10.5712C26.2545 10.2815 28.2693 10.3359 24.1672 6.73245C23.0236 5.73653 22.1705 4.90352 22.2613 4.8673C22.6062 4.75866 33.3698 3.69035 36.6733 3.02037C37.9076 2.78497 37.9802 2.78491 37.8713 3.14707Z" fill="#006BB3"/>
<path d="M37.8713 3.14707C37.0363 5.84512 35.6568 13.1425 35.439 16.0036L35.312 17.6876C32.8979 14.4282 32.3533 13.3055 29.1769 15.7139C25.2744 18.6654 13.3128 27.502 12.1692 28.3531C8.68421 30.9606 8.68422 30.9606 10.6264 28.6971C14.7467 23.9348 25.1292 11.4947 26.2001 10.5712C26.2545 10.2815 28.2693 10.3359 24.1672 6.73245C23.0236 5.73653 22.1705 4.90352 22.2613 4.8673C22.6062 4.75866 33.3698 3.69035 36.6733 3.02037C37.9076 2.78497 37.9802 2.78491 37.8713 3.14707Z" fill="#006BB3"/>
</svg>
