<svg width="40" height="40" viewBox="0 0 40 40" fill="none" xmlns="http://www.w3.org/2000/svg">
<path fill-rule="evenodd" clip-rule="evenodd" d="M3.32669 0.213673C5.50483 0.55772 10.0245 0.865551 14.1266 1.30014C21.5867 2.07877 21.1148 1.98821 21.1148 2.91171C21.1148 4.28789 19.2453 6.64191 16.4318 8.81484L15.8328 9.26753C20.9696 14.5731 22.0587 15.9493 28.7383 23.8442C36.7248 33.2965 36.8701 35.1072 39.3749 38.0588C41.1356 40.1231 38.8304 40.7931 36.743 38.8193C33.9477 36.1756 27.7763 31.2322 22.7847 27.6288C21.4597 26.6872 8.17305 16.7279 8.17305 16.7279C4.32501 20.603 3.96198 21.0919 3.05442 20.8565C2.6914 20.7659 2.63695 20.6392 2.6188 19.6433C2.52804 16.5468 0.313602 6.91351 0.0231835 2.82117C-0.176479 -0.402008 0.912586 -0.166588 3.32669 0.213673ZM2.12872 3.14707C2.96367 5.84512 4.34315 13.1425 4.56097 16.0036L4.68803 17.6876C7.10213 14.4282 7.64666 13.3055 10.8231 15.7139C14.7256 18.6654 26.6872 27.502 27.8308 28.3531C31.3158 30.9606 31.3158 30.9606 29.3736 28.6971C25.2533 23.9348 14.8708 11.4947 13.7999 10.5712C13.7455 10.2815 11.7307 10.3359 15.8328 6.73245C16.9764 5.73653 17.8295 4.90352 17.7387 4.8673C17.3938 4.75866 6.6302 3.69036 3.32669 3.02037C2.09241 2.78497 2.01981 2.78491 2.12872 3.14707Z" fill="#969FA3"/>
<path d="M2.12872 3.14707C2.96367 5.84512 4.34315 13.1425 4.56097 16.0036L4.68803 17.6876C7.10213 14.4282 7.64666 13.3055 10.8231 15.7139C14.7256 18.6654 26.6872 27.502 27.8308 28.3531C31.3158 30.9606 31.3158 30.9606 29.3736 28.6971C25.2533 23.9348 14.8708 11.4947 13.7999 10.5712C13.7455 10.2815 11.7307 10.3359 15.8328 6.73245C16.9764 5.73653 17.8295 4.90352 17.7387 4.8673C17.3938 4.75866 6.6302 3.69036 3.32669 3.02037C2.09241 2.78497 2.01981 2.78491 2.12872 3.14707Z" fill="#969FA3"/>
</svg>
