<svg width="24" height="24" viewBox="0 0 24 24" fill="none" xmlns="http://www.w3.org/2000/svg">
<path d="M5.7 10.5H7.36473C8.42381 10.5 8.95335 10.5 9.3624 10.3045C9.77488 10.1074 10.1074 9.77488 10.3045 9.3624C10.5 8.95335 10.5 8.42381 10.5 7.36473V5.7C10.5 4.57989 10.5 4.01984 10.282 3.59202C10.0903 3.21569 9.78431 2.90973 9.40798 2.71799C8.98016 2.5 8.4201 2.5 7.3 2.5H5.7C4.5799 2.5 4.01984 2.5 3.59202 2.71799C3.21569 2.90973 2.90973 3.21569 2.71799 3.59202C2.5 4.01984 2.5 4.57989 2.5 5.7V7.3C2.5 8.4201 2.5 8.98016 2.71799 9.40798C2.90973 9.78431 3.21569 10.0903 3.59202 10.282C4.01984 10.5 4.57989 10.5 5.7 10.5Z" fill="#0DAAFF"/>
<path d="M16.7 10.5H18.3647C19.4238 10.5 19.9534 10.5 20.3624 10.3045C20.7749 10.1074 21.1074 9.77488 21.3045 9.3624C21.5 8.95335 21.5 8.42381 21.5 7.36473V5.7C21.5 4.57989 21.5 4.01984 21.282 3.59202C21.0903 3.21569 20.7843 2.90973 20.408 2.71799C19.9802 2.5 19.4201 2.5 18.3 2.5H16.7C15.5799 2.5 15.0198 2.5 14.592 2.71799C14.2157 2.90973 13.9097 3.21569 13.718 3.59202C13.5 4.01984 13.5 4.57989 13.5 5.7V7.3C13.5 8.4201 13.5 8.98016 13.718 9.40798C13.9097 9.78431 14.2157 10.0903 14.592 10.282C15.0198 10.5 15.5799 10.5 16.7 10.5Z" fill="#0DAAFF"/>
<path d="M16.7 21.5H18.3647C19.4238 21.5 19.9534 21.5 20.3624 21.3045C20.7749 21.1074 21.1074 20.7749 21.3045 20.3624C21.5 19.9534 21.5 19.4238 21.5 18.3647V16.7C21.5 15.5799 21.5 15.0198 21.282 14.592C21.0903 14.2157 20.7843 13.9097 20.408 13.718C19.9802 13.5 19.4201 13.5 18.3 13.5H16.7C15.5799 13.5 15.0198 13.5 14.592 13.718C14.2157 13.9097 13.9097 14.2157 13.718 14.592C13.5 15.0198 13.5 15.5799 13.5 16.7V18.3C13.5 19.4201 13.5 19.9802 13.718 20.408C13.9097 20.7843 14.2157 21.0903 14.592 21.282C15.0198 21.5 15.5799 21.5 16.7 21.5Z" fill="#0DAAFF"/>
<path d="M5.7 21.5H7.36473C8.42381 21.5 8.95335 21.5 9.3624 21.3045C9.77488 21.1074 10.1074 20.7749 10.3045 20.3624C10.5 19.9534 10.5 19.4238 10.5 18.3647V16.7C10.5 15.5799 10.5 15.0198 10.282 14.592C10.0903 14.2157 9.78431 13.9097 9.40798 13.718C8.98016 13.5 8.4201 13.5 7.3 13.5H5.7C4.5799 13.5 4.01984 13.5 3.59202 13.718C3.21569 13.9097 2.90973 14.2157 2.71799 14.592C2.5 15.0198 2.5 15.5799 2.5 16.7V18.3C2.5 19.4201 2.5 19.9802 2.71799 20.408C2.90973 20.7843 3.21569 21.0903 3.59202 21.282C4.01984 21.5 4.57989 21.5 5.7 21.5Z" fill="#0DAAFF"/>
<path d="M5.7 10.5H7.36473C8.42381 10.5 8.95335 10.5 9.3624 10.3045C9.77488 10.1074 10.1074 9.77488 10.3045 9.3624C10.5 8.95335 10.5 8.42381 10.5 7.36473V5.7C10.5 4.57989 10.5 4.01984 10.282 3.59202C10.0903 3.21569 9.78431 2.90973 9.40798 2.71799C8.98016 2.5 8.4201 2.5 7.3 2.5H5.7C4.5799 2.5 4.01984 2.5 3.59202 2.71799C3.21569 2.90973 2.90973 3.21569 2.71799 3.59202C2.5 4.01984 2.5 4.57989 2.5 5.7V7.3C2.5 8.4201 2.5 8.98016 2.71799 9.40798C2.90973 9.78431 3.21569 10.0903 3.59202 10.282C4.01984 10.5 4.57989 10.5 5.7 10.5Z" stroke="#0DAAFF" stroke-width="1.5"/>
<path d="M16.7 10.5H18.3647C19.4238 10.5 19.9534 10.5 20.3624 10.3045C20.7749 10.1074 21.1074 9.77488 21.3045 9.3624C21.5 8.95335 21.5 8.42381 21.5 7.36473V5.7C21.5 4.57989 21.5 4.01984 21.282 3.59202C21.0903 3.21569 20.7843 2.90973 20.408 2.71799C19.9802 2.5 19.4201 2.5 18.3 2.5H16.7C15.5799 2.5 15.0198 2.5 14.592 2.71799C14.2157 2.90973 13.9097 3.21569 13.718 3.59202C13.5 4.01984 13.5 4.57989 13.5 5.7V7.3C13.5 8.4201 13.5 8.98016 13.718 9.40798C13.9097 9.78431 14.2157 10.0903 14.592 10.282C15.0198 10.5 15.5799 10.5 16.7 10.5Z" stroke="#0DAAFF" stroke-width="1.5"/>
<path d="M16.7 21.5H18.3647C19.4238 21.5 19.9534 21.5 20.3624 21.3045C20.7749 21.1074 21.1074 20.7749 21.3045 20.3624C21.5 19.9534 21.5 19.4238 21.5 18.3647V16.7C21.5 15.5799 21.5 15.0198 21.282 14.592C21.0903 14.2157 20.7843 13.9097 20.408 13.718C19.9802 13.5 19.4201 13.5 18.3 13.5H16.7C15.5799 13.5 15.0198 13.5 14.592 13.718C14.2157 13.9097 13.9097 14.2157 13.718 14.592C13.5 15.0198 13.5 15.5799 13.5 16.7V18.3C13.5 19.4201 13.5 19.9802 13.718 20.408C13.9097 20.7843 14.2157 21.0903 14.592 21.282C15.0198 21.5 15.5799 21.5 16.7 21.5Z" stroke="#0DAAFF" stroke-width="1.5"/>
<path d="M5.7 21.5H7.36473C8.42381 21.5 8.95335 21.5 9.3624 21.3045C9.77488 21.1074 10.1074 20.7749 10.3045 20.3624C10.5 19.9534 10.5 19.4238 10.5 18.3647V16.7C10.5 15.5799 10.5 15.0198 10.282 14.592C10.0903 14.2157 9.78431 13.9097 9.40798 13.718C8.98016 13.5 8.4201 13.5 7.3 13.5H5.7C4.5799 13.5 4.01984 13.5 3.59202 13.718C3.21569 13.9097 2.90973 14.2157 2.71799 14.592C2.5 15.0198 2.5 15.5799 2.5 16.7V18.3C2.5 19.4201 2.5 19.9802 2.71799 20.408C2.90973 20.7843 3.21569 21.0903 3.59202 21.282C4.01984 21.5 4.57989 21.5 5.7 21.5Z" stroke="#0DAAFF" stroke-width="1.5"/>
</svg>
