<svg width="24" height="24" viewBox="0 0 24 24" fill="none" xmlns="http://www.w3.org/2000/svg">
<path d="M11.5 7H22M11.5 17H22M5.64855 10H4.4C3.55992 10 3.13988 10 2.81901 9.83651C2.53677 9.6927 2.3073 9.46323 2.16349 9.18099C2 8.86012 2 8.44008 2 7.6V6.4C2 5.55992 2 5.13988 2.16349 4.81901C2.3073 4.53677 2.53677 4.3073 2.81901 4.16349C3.13988 4 3.55992 4 4.4 4H5.6C6.44008 4 6.86012 4 7.18099 4.16349C7.46323 4.3073 7.6927 4.53677 7.83651 4.81901C8 5.13988 8 5.55992 8 6.4V7.64855C8 8.44286 8 8.84002 7.85339 9.1468C7.70554 9.45616 7.45616 9.70554 7.1468 9.85339C6.84002 10 6.44286 10 5.64855 10ZM5.64855 20H4.4C3.55992 20 3.13988 20 2.81901 19.8365C2.53677 19.6927 2.3073 19.4632 2.16349 19.181C2 18.8601 2 18.4401 2 17.6V16.4C2 15.5599 2 15.1399 2.16349 14.819C2.3073 14.5368 2.53677 14.3073 2.81901 14.1635C3.13988 14 3.55992 14 4.4 14H5.6C6.44008 14 6.86012 14 7.18099 14.1635C7.46323 14.3073 7.6927 14.5368 7.83651 14.819C8 15.1399 8 15.5599 8 16.4V17.6485C8 18.4429 8 18.84 7.85339 19.1468C7.70554 19.4562 7.45616 19.7055 7.1468 19.8534C6.84002 20 6.44286 20 5.64855 20Z" stroke="#0DAAFF" stroke-width="1.5" stroke-linecap="round"/>
</svg>
