<svg width="52" height="52" viewBox="0 0 52 52" fill="none" xmlns="http://www.w3.org/2000/svg">
<path d="M14.9573 8.79339L25.9895 15.1837L36.9384 8.83502M25.9891 26.5074V15.163M2 44H9.85714M2 50H14.1429M2 38H17M38.8 44H50M31.8 50H50M29 38H50M23.4086 2.61148L16.7477 6.31664C15.2489 7.14925 14 9.25161 14 10.9793V18.0357C14 19.7634 15.2281 21.8658 16.7477 22.6984L23.4086 26.4036C24.8241 27.1946 27.1554 27.1946 28.5917 26.4036L35.2527 22.6984C36.7514 21.8658 38.0002 19.7634 38.0002 18.0357V10.9585C38.0002 9.23081 36.7722 7.12843 35.2527 6.29581L28.5917 2.59066C27.1554 1.79967 24.8241 1.79968 23.4086 2.61148Z" stroke="#292518" stroke-width="3" stroke-linecap="round" stroke-linejoin="round"/>
</svg>
