<svg width="30" height="25" viewBox="0 0 30 25" fill="none" xmlns="http://www.w3.org/2000/svg">
<path d="M17 12H1.00434V15.5L1.00001 17.5L1.00001 17.5546C0.999779 19.0362 0.999555 20.5 2.50405 20.5L5.38465 20.5C5.38465 18.8431 6.7278 17.5 8.38465 17.5C10.0415 17.5 11.3847 18.8431 11.3847 20.5H20.3803C20.3803 18.8431 21.7234 17.5 23.3803 17.5C25.0371 17.5 26.3803 18.8431 26.3803 20.5L27.5041 20.5C29.0045 20.5 29.0045 19.16 29.0045 17.5V15.5V12L23.5 12C22 12 20.5 11 20.5 9V4.5L17 4.5V12Z" fill="#FCCC0D"/>
<path d="M1.00434 12H17V4.5V1.5L4.49992 1.5C2.50007 1.5 1.00007 3 1.00007 5L1.00434 12Z" fill="#FCCC0D"/>
<path d="M1.00434 12H17V4.5M1.00434 12L1.00007 5C1.00007 3 2.50007 1.5 4.49992 1.5L17 1.5V4.5M1.00434 12V15.5M20.5 4.5V9C20.5 11 22 12 23.5 12L29.0045 12M20.5 4.5L23.0045 4.5C25.0045 4.5 29 9 29.0045 12M20.5 4.5C20.5 4.5 18.562 4.5 17 4.5M20.5 4.5L17 4.5M29.0045 12V15.5M29.0045 15.5V17.5C29.0045 19.16 29.0045 20.5 27.5041 20.5L26.3803 20.5M29.0045 15.5H27M1.00434 15.5H3.5M1.00434 15.5L1.00001 17.5M11.3847 20.5C11.3847 22.1569 10.0415 23.5 8.38465 23.5C6.7278 23.5 5.38465 22.1569 5.38465 20.5M11.3847 20.5C11.3847 18.8431 10.0415 17.5 8.38465 17.5C6.7278 17.5 5.38465 18.8431 5.38465 20.5M11.3847 20.5H20.3803M5.38465 20.5L2.50405 20.5C0.999555 20.5 0.999779 19.0362 1.00001 17.5546M26.3803 20.5C26.3803 22.1569 25.0371 23.5 23.3803 23.5C21.7234 23.5 20.3803 22.1569 20.3803 20.5M26.3803 20.5C26.3803 18.8431 25.0371 17.5 23.3803 17.5C21.7234 17.5 20.3803 18.8431 20.3803 20.5M1.00001 17.5L1.00001 17.5546M1.00001 17.5C1.00001 17.5182 1.00001 17.5364 1.00001 17.5546" stroke="#182024" stroke-width="1.5" stroke-linecap="round" stroke-linejoin="round"/>
</svg>
