<svg width="20" height="20" viewBox="0 0 20 20" fill="none" xmlns="http://www.w3.org/2000/svg">
<path d="M8.39951 1.99951H5.99951C4.59938 1.99951 3.89931 1.99951 3.36454 2.272C2.89413 2.51168 2.51168 2.89413 2.272 3.36454C1.99951 3.89931 1.99951 4.59938 1.99951 5.99951V13.9995C1.99951 15.3996 1.99951 16.0997 2.272 16.6345C2.51168 17.1049 2.89413 17.4873 3.36454 17.727C3.89931 17.9995 4.59938 17.9995 5.99951 17.9995H13.9995C15.3996 17.9995 16.0997 17.9995 16.6345 17.727C17.1049 17.4873 17.4873 17.1049 17.727 16.6345C17.9995 16.0997 17.9995 15.3996 17.9995 13.9995V11.5995" stroke="#182024" stroke-width="1.25" stroke-linecap="round"/>
<path d="M18.6235 1.99895C18.6235 1.65377 18.3436 1.37398 17.9985 1.37402L12.3735 1.3747C12.0283 1.37475 11.7485 1.6546 11.7485 1.99978C11.7486 2.34496 12.0284 2.62475 12.3736 2.6247L17.3736 2.6241L17.3742 7.6241C17.3743 7.96928 17.6541 8.24907 17.9993 8.24902C18.3445 8.24898 18.6243 7.96913 18.6242 7.62395L18.6235 1.99895ZM10.4853 8.63013C10.2412 8.87424 10.2413 9.26997 10.4854 9.51402C10.7295 9.75807 11.1252 9.75802 11.3692 9.51391L10.4853 8.63013ZM17.5565 1.55714L10.4853 8.63013L11.3692 9.51391L18.4405 2.44091L17.5565 1.55714Z" fill="#182024"/>
</svg>
